<svg xmlns="http://www.w3.org/2000/svg" viewBox="0 0 1200 1200"><defs><linearGradient id="bg" x1="0" y1="0" x2="1" y2="1"><stop stop-color="#090312"/><stop offset=".55" stop-color="#ff2bd6"/><stop offset="1" stop-color="#2d7dff"/></linearGradient><radialGradient id="r" cx="50%" cy="38%" r="60%"><stop stop-color="#ffffff60"/><stop offset=".45" stop-color="#ffffff00"/></radialGradient><filter id="blur"><feGaussianBlur stdDeviation="28"/></filter></defs><rect width="1200" height="1200" fill="#050711"/><rect width="1200" height="1200" fill="url(#bg)" opacity=".88"/><circle cx="880" cy="250" r="300" fill="#ffffff22" filter="url(#blur)"/><circle cx="290" cy="850" r="360" fill="#16e6ff30" filter="url(#blur)"/><path d="M0 820 C300 650 460 980 760 760 C950 620 1040 650 1200 560 L1200 1200 L0 1200z" fill="#02030a99"/><g opacity=".38" stroke="#fff" stroke-width="2"><path d="M0 240h1200M0 360h1200M0 480h1200M0 600h1200M0 720h1200"/><path d="M180 0v1200M360 0v1200M540 0v1200M720 0v1200M900 0v1200M1080 0v1200"/></g><rect x="76" y="76" width="1048" height="1048" rx="70" fill="none" stroke="#ffffff66" stroke-width="4"/><text x="86" y="158" fill="#ffffff" font-family="Arial, sans-serif" font-size="44" font-weight="900" letter-spacing="10">TRGVC</text><text x="86" y="930" fill="#ffffff" font-family="Arial, sans-serif" font-size="78" font-weight="900">Pulse of the Night</text><text x="90" y="1008" fill="#dfe8ff" font-family="Arial, sans-serif" font-size="34" letter-spacing="4">2026 • Album</text></svg>