<svg xmlns="http://www.w3.org/2000/svg" viewBox="0 0 1600 900"><defs><linearGradient id="g" x1="0" y1="0" x2="1" y2="1"><stop stop-color="#050711"/><stop offset=".45" stop-color="#35115e"/><stop offset="1" stop-color="#053747"/></linearGradient><filter id="blur"><feGaussianBlur stdDeviation="50"/></filter></defs><rect width="1600" height="900" fill="url(#g)"/><circle cx="1180" cy="160" r="360" fill="#16e6ff35" filter="url(#blur)"/><circle cx="270" cy="780" r="420" fill="#ff2bd63a" filter="url(#blur)"/><path d="M0 650 C370 470 610 820 1000 520 C1230 342 1390 410 1600 300 L1600 900 L0 900z" fill="#02030aae"/><g opacity=".2" stroke="#fff"><path d="M0 160h1600M0 280h1600M0 400h1600M0 520h1600M0 640h1600"/><path d="M200 0v900M400 0v900M600 0v900M800 0v900M1000 0v900M1200 0v900M1400 0v900"/></g><text x="92" y="196" fill="#ffffff" font-family="Arial, sans-serif" font-size="54" font-weight="900" letter-spacing="16">TRGVC</text><text x="92" y="430" fill="#ffffff" font-family="Arial, sans-serif" font-size="116" font-weight="900">Heavy Bass.</text><text x="92" y="548" fill="#ffffff" font-family="Arial, sans-serif" font-size="116" font-weight="900">Real PC Gameplay.</text><text x="98" y="656" fill="#dfe8ff" font-family="Arial, sans-serif" font-size="42">Music Producer • PC Gamer • Digital Creator</text></svg>